<svg width="517" height="418" viewBox="0 0 517 418" fill="none" xmlns="http://www.w3.org/2000/svg">
<g clip-path="url(#clip0_101_1142)">
<path d="M472.924 146.801C472.382 147.332 471.84 147.84 471.286 148.341H334.476C333.457 147.84 332.443 147.327 331.433 146.801C316.99 139.295 303.547 129.299 291.532 117.134C283.555 109.063 276.216 100.73 270.896 92.9203C263.473 82.0226 256.637 70.1467 253.457 56.615C250.285 43.0833 251.232 27.5722 258.32 16.351C260.515 12.8992 263.213 9.94841 266.285 7.64045C266.794 7.25537 267.31 6.8857 267.839 6.53913C276.338 0.839934 287.063 -0.546363 296.634 2.40335C310.338 6.63154 321.727 18.4381 329.852 32.2856C337.978 46.1254 343.254 62.0215 348.451 77.7405C353.727 49.6835 369.701 24.5532 391.279 11.7762C412.851 -1.00076 439.654 -0.846725 460.767 12.9931C467.411 17.374 473.412 23.0189 478.535 29.7056C479.044 30.3602 479.541 31.0302 480.031 31.708C490.33 45.9483 496.772 64.1857 497.301 82.993C497.978 107.222 488.576 131.559 472.924 146.801Z" fill="#F2F2F2"/>
<path d="M339.945 148.341H338.011C337.985 147.825 337.953 147.317 337.914 146.801C337.238 136.727 335.822 126.743 333.684 116.965C328.777 94.6408 320.395 73.6192 308.977 54.9976C297.592 36.3165 283.239 20.4945 266.736 8.43372C266.616 8.35112 266.512 8.23675 266.434 8.0993C266.356 7.96185 266.305 7.80493 266.285 7.64045C266.253 7.42539 266.274 7.20403 266.343 7.00218C266.413 6.80033 266.529 6.62631 266.679 6.50039C266.828 6.37448 267.004 6.30185 267.187 6.29098C267.37 6.28011 267.551 6.33145 267.71 6.439C267.755 6.46964 267.798 6.50306 267.839 6.53912C277.189 13.3447 285.868 21.3843 293.713 30.5065C307.745 46.8541 319.06 66.2257 327.06 87.5986C334.118 106.317 338.441 126.34 339.843 146.801C339.881 147.317 339.913 147.833 339.945 148.341Z" fill="white"/>
<path d="M480.031 31.7078C480.017 31.7165 480.002 31.7217 479.986 31.7232C478.574 32.0313 477.155 32.3547 475.749 32.7013C464.208 35.5317 452.911 39.6284 442.001 44.9392C431.12 50.2425 420.653 56.6856 410.723 64.1932C400.781 71.6969 391.405 80.2215 382.702 89.6701C374 99.1052 366.017 109.446 358.847 120.569C353.489 128.903 348.617 137.668 344.266 146.801C344.021 147.309 343.783 147.825 343.544 148.341H341.332C341.564 147.825 341.803 147.309 342.048 146.801C347.312 135.61 353.347 124.963 360.092 114.97C367.551 103.91 375.819 93.6653 384.798 84.356C393.721 75.0992 403.296 66.7812 413.419 59.4952C423.584 52.1797 434.27 45.9531 445.355 40.8881C456.111 35.9774 467.216 32.2347 478.535 29.7054C478.851 29.6361 479.16 29.5668 479.476 29.4974C480.682 29.2356 481.198 31.4074 480.031 31.7078Z" fill="white"/>
<path d="M128.41 152.92C131.85 145.164 132.418 135.062 128.14 127.925C125.594 123.676 121.617 120.888 117.446 119.315C113.274 117.742 108.873 117.279 104.509 116.897C100.19 116.518 95.7942 116.216 91.575 117.382C87.3559 118.549 83.2691 121.399 81.2138 125.951C77.7416 133.642 80.9046 143.503 78.3543 151.692C76.014 159.207 69.3533 163.6 62.8056 165.373C56.2579 167.146 49.4237 166.958 42.8728 168.714C36.3218 170.469 29.65 174.822 27.2682 182.319C25.5458 187.74 26.4015 193.984 28.6711 199.109C30.9407 204.235 34.4951 208.384 38.268 212.034C43.8966 217.477 50.4816 222.14 57.7138 222.611C65.3341 223.109 72.7852 218.777 78.2699 212.439C83.7546 206.102 87.4886 197.912 90.4719 189.523C92.3644 184.201 94.1525 178.474 97.9452 174.88C100.732 172.24 104.277 171.083 107.714 169.989L111.607 168.75C115.134 167.647 118.435 165.695 121.307 163.013C124.179 160.33 126.561 156.974 128.306 153.152C128.341 153.075 128.375 152.997 128.41 152.92Z" fill="#2F2E41"/>
<path d="M97.712 408.055H89.8061L86.0444 371.635H97.7139L97.712 408.055Z" fill="#FFB8B8"/>
<path d="M84.1582 405.356H99.4061V416.822H74.5576C74.5576 415.316 74.8059 413.825 75.2884 412.434C75.7709 411.043 76.4781 409.779 77.3696 408.715C78.261 407.65 79.3194 406.805 80.4842 406.229C81.649 405.653 82.8974 405.356 84.1582 405.356Z" fill="#2F2E41"/>
<path d="M163.492 408.055H155.586L151.824 371.635H163.494L163.492 408.055Z" fill="#FFB8B8"/>
<path d="M149.938 405.356H165.186V416.822H140.338C140.338 415.316 140.586 413.825 141.069 412.434C141.551 411.043 142.258 409.779 143.15 408.715C144.041 407.65 145.1 406.805 146.264 406.229C147.429 405.653 148.678 405.356 149.938 405.356Z" fill="#2F2E41"/>
<path d="M112.91 379.108C112.8 379.108 112.69 379.101 112.58 379.087L80.4142 374.971C79.987 374.916 79.5745 374.754 79.204 374.494C78.8336 374.234 78.5138 373.883 78.2658 373.464C78.0179 373.044 77.8476 372.567 77.7662 372.063C77.6848 371.56 77.6942 371.041 77.7938 370.542L106.274 241.178C106.408 240.519 106.692 239.919 107.096 239.444C107.5 238.968 108.008 238.637 108.561 238.488L134.981 229.693C135.511 229.554 136.062 229.586 136.578 229.787C137.093 229.988 137.555 230.349 137.914 230.834C154.901 253.716 167.703 304.439 177.4 368.373C177.473 368.856 177.463 369.351 177.371 369.829C177.279 370.307 177.106 370.757 176.863 371.152C176.621 371.548 176.313 371.88 175.959 372.129C175.606 372.378 175.213 372.539 174.806 372.601L148.45 376.62C147.703 376.736 146.946 376.513 146.329 375.997C145.712 375.48 145.279 374.705 145.116 373.826L132.293 305.553C132.175 304.925 131.88 304.364 131.457 303.964C131.034 303.565 130.509 303.351 129.97 303.358C129.431 303.365 128.91 303.594 128.495 304.005C128.08 304.416 127.796 304.985 127.69 305.617L115.869 376.203C115.735 377.022 115.366 377.76 114.827 378.29C114.287 378.82 113.609 379.109 112.91 379.108Z" fill="#2F2E41"/>
<path d="M108.018 170.683C116.766 170.683 123.857 162.215 123.857 151.768C123.857 141.321 116.766 132.852 108.018 132.852C99.2698 132.852 92.1782 141.321 92.1782 151.768C92.1782 162.215 99.2698 170.683 108.018 170.683Z" fill="#FFB8B8"/>
<path d="M107.575 241.542C106.909 241.541 106.262 241.277 105.735 240.792C105.208 240.306 104.829 239.626 104.659 238.857L95.1304 196.106C94.4426 193.034 94.7274 189.767 95.9304 186.93C97.1333 184.094 99.1699 181.886 101.65 180.73C109.321 177.154 116.629 175.828 123.371 176.786C129.363 177.639 136.756 220.006 136.266 220.91L138.631 229.382C138.765 229.862 138.813 230.371 138.772 230.875C138.731 231.379 138.602 231.867 138.392 232.307C138.183 232.748 137.898 233.131 137.557 233.431C137.216 233.732 136.826 233.944 136.411 234.052L108.232 241.455C108.017 241.513 107.796 241.541 107.575 241.542Z" fill="#CCCCCC"/>
<path d="M116.115 285.261C116.251 284.42 116.23 283.553 116.055 282.722C115.88 281.891 115.555 281.116 115.102 280.451C114.649 279.787 114.079 279.249 113.433 278.876C112.787 278.503 112.081 278.303 111.363 278.292L105.873 258.521L100.262 267.022L106.336 284.492C106.399 285.933 106.903 287.296 107.751 288.323C108.6 289.35 109.734 289.969 110.94 290.064C112.145 290.159 113.338 289.722 114.291 288.837C115.245 287.952 115.894 286.679 116.115 285.261Z" fill="#FFB8B8"/>
<path d="M186.698 237.748C186.369 236.987 185.905 236.32 185.337 235.796C184.77 235.272 184.113 234.903 183.413 234.715C182.713 234.527 181.987 234.524 181.286 234.707C180.585 234.891 179.926 235.255 179.356 235.775L164.81 224.283L164.796 235.107L178.612 244.361C179.407 245.447 180.508 246.147 181.707 246.328C182.905 246.509 184.118 246.159 185.114 245.344C186.111 244.529 186.823 243.305 187.115 241.905C187.407 240.506 187.258 239.026 186.698 237.748Z" fill="#FFB8B8"/>
<path d="M104.605 276.127C103.969 276.127 103.349 275.888 102.833 275.443C102.318 274.998 101.933 274.37 101.733 273.649L88.8627 241.135C88.3348 239.23 88.066 237.236 88.0664 235.229L91.9358 192.969C91.9357 190.603 92.6917 188.326 94.0496 186.603C95.4075 184.88 97.2648 183.841 99.2424 183.698C101.22 183.555 103.169 184.319 104.691 185.833C106.213 187.348 107.194 189.499 107.433 191.848L101.513 240.084L110.96 269.689C111.109 270.477 111.033 271.302 110.743 272.031C110.453 272.761 109.967 273.353 109.361 273.713L105.958 275.746C105.538 275.997 105.075 276.127 104.605 276.127Z" fill="#CCCCCC"/>
<path d="M173.341 242.017C172.868 242.017 172.4 241.884 171.977 241.629L146.383 226.189C144.882 225.285 143.513 224.099 142.327 222.677L117.345 192.747C115.947 191.071 115.136 188.821 115.08 186.456C115.023 184.091 115.725 181.789 117.041 180.021C118.357 178.252 120.188 177.151 122.162 176.94C124.135 176.73 126.101 177.427 127.659 178.889L154.721 214.78L176.172 231.046C176.744 231.478 177.177 232.126 177.403 232.887C177.629 233.648 177.635 234.478 177.419 235.243L176.209 239.553C176.008 240.271 175.622 240.895 175.108 241.337C174.593 241.779 173.975 242.017 173.341 242.017Z" fill="#CCCCCC"/>
<path d="M90.001 141.987C92.6916 146.191 96.5592 149.097 100.897 150.175C105.293 151.26 109.869 150.477 113.833 147.962C117.023 145.903 119.576 142.814 122.077 139.772C123.12 138.503 124.231 137.039 124.179 135.307C124.098 132.624 121.397 131.157 119.079 130.572C111.47 128.677 103.552 129.74 96.486 133.607C93.3389 135.352 90.0599 138.511 90.5325 142.437" fill="#2F2E41"/>
<path d="M505.963 146.801H195.12C192.214 146.806 189.428 148.187 187.372 150.641C185.317 153.095 184.161 156.423 184.157 159.894V303.143C184.161 306.614 185.317 309.942 187.372 312.396C189.428 314.85 192.214 316.231 195.12 316.236H505.963C508.869 316.231 511.655 314.85 513.71 312.396C515.765 309.942 516.922 306.614 516.926 303.143V159.894C516.922 156.423 515.765 153.095 513.71 150.641C511.655 148.187 508.869 146.806 505.963 146.801ZM515.636 303.143C515.633 306.206 514.613 309.142 512.799 311.308C510.986 313.474 508.527 314.692 505.963 314.696H195.12C192.555 314.692 190.097 313.474 188.283 311.308C186.47 309.142 185.45 306.206 185.447 303.143V159.894C185.45 156.831 186.47 153.895 188.283 151.729C190.097 149.563 192.555 148.345 195.12 148.341H505.963C508.527 148.345 510.986 149.563 512.799 151.729C514.613 153.895 515.633 156.831 515.636 159.894V303.143Z" fill="#3F3D56"/>
<path d="M251.558 276.188C244.16 276.188 236.928 273.568 230.777 268.66C224.626 263.751 219.832 256.775 217.001 248.613C214.17 240.45 213.429 231.469 214.872 222.804C216.315 214.139 219.878 206.18 225.109 199.932C230.34 193.685 237.005 189.431 244.26 187.707C251.516 185.984 259.037 186.868 265.872 190.249C272.706 193.63 278.548 199.356 282.658 206.702C286.768 214.047 288.962 222.684 288.962 231.518C288.951 243.361 285.006 254.715 277.994 263.09C270.982 271.464 261.474 276.174 251.558 276.188ZM251.558 188.389C244.415 188.389 237.432 190.919 231.493 195.658C225.555 200.397 220.926 207.133 218.192 215.014C215.459 222.895 214.744 231.566 216.137 239.933C217.531 248.299 220.97 255.984 226.021 262.015C231.072 268.047 237.507 272.155 244.512 273.819C251.518 275.483 258.779 274.629 265.378 271.364C271.977 268.1 277.617 262.572 281.586 255.48C285.554 248.387 287.672 240.049 287.672 231.518C287.661 220.084 283.853 209.121 277.082 201.036C270.312 192.951 261.132 188.402 251.558 188.389Z" fill="#3F3D56"/>
<path d="M478.223 203.022H329.25C327.168 203.024 325.167 203.988 323.667 205.712C322.166 207.436 321.283 209.787 321.202 212.272C321.191 212.397 321.187 212.523 321.189 212.649C321.192 215.202 322.042 217.648 323.553 219.453C325.065 221.257 327.113 222.273 329.25 222.276H478.223C480.361 222.276 482.411 221.262 483.923 219.457C485.434 217.651 486.284 215.203 486.284 212.649C486.284 210.096 485.434 207.648 483.923 205.842C482.411 204.037 480.361 203.022 478.223 203.022Z" fill="#348CD4"/>
<path d="M478.223 240.76H329.25C327.168 240.762 325.167 241.726 323.667 243.45C322.166 245.174 321.283 247.525 321.202 250.01C321.191 250.135 321.187 250.261 321.189 250.387C321.192 252.939 322.042 255.386 323.553 257.191C325.065 258.995 327.113 260.011 329.25 260.014H478.223C480.361 260.014 482.411 259 483.923 257.195C485.434 255.389 486.284 252.941 486.284 250.387C486.284 247.834 485.434 245.385 483.923 243.58C482.411 241.775 480.361 240.76 478.223 240.76Z" fill="#348CD4"/>
<path d="M247.385 251.036C246.341 251.038 245.325 250.635 244.49 249.887L244.438 249.841L233.537 239.873C233.032 239.411 232.608 238.835 232.29 238.178C231.971 237.52 231.765 236.794 231.681 236.041C231.598 235.288 231.639 234.523 231.803 233.789C231.967 233.055 232.251 232.367 232.638 231.764C233.025 231.161 233.507 230.655 234.058 230.275C234.608 229.895 235.216 229.648 235.847 229.548C236.477 229.448 237.118 229.498 237.733 229.694C238.347 229.89 238.923 230.229 239.428 230.691L246.489 237.157L263.176 211.168C263.563 210.566 264.045 210.06 264.596 209.68C265.147 209.3 265.755 209.053 266.385 208.954C267.016 208.854 267.657 208.904 268.271 209.1C268.885 209.297 269.461 209.636 269.966 210.098L269.862 210.266L269.969 210.1C270.987 211.035 271.653 212.413 271.821 213.934C271.989 215.454 271.645 216.992 270.865 218.21L251.238 248.778C250.784 249.483 250.2 250.053 249.532 250.444C248.864 250.836 248.129 251.038 247.385 251.036Z" fill="#348CD4"/>
<path d="M247.278 417.897H1.57068C1.39964 417.897 1.23561 417.816 1.11467 417.672C0.993726 417.527 0.925781 417.331 0.925781 417.127C0.925781 416.923 0.993726 416.727 1.11467 416.583C1.23561 416.438 1.39964 416.357 1.57068 416.357H247.278C247.449 416.357 247.613 416.438 247.734 416.583C247.855 416.727 247.923 416.923 247.923 417.127C247.923 417.331 247.855 417.527 247.734 417.672C247.613 417.816 247.449 417.897 247.278 417.897Z" fill="#3F3D56"/>
<path d="M441.56 112.105C428.088 109.892 414.406 110.26 401.031 113.196C387.695 116.107 374.82 121.483 362.87 129.129C356.155 133.439 349.781 138.468 343.827 144.155C342.855 145.083 344.231 146.708 345.195 145.788C355.642 135.864 367.353 128.002 379.883 122.502C392.313 117.012 405.379 113.846 418.618 113.118C426.109 112.707 433.616 113.113 441.046 114.333C441.293 114.403 441.553 114.359 441.774 114.209C441.995 114.06 442.16 113.815 442.236 113.526C442.302 113.23 442.269 112.915 442.142 112.649C442.016 112.383 441.807 112.188 441.56 112.105Z" fill="white"/>
</g>
<defs>
<clipPath id="clip0_101_1142">
<rect width="516" height="417" fill="white" transform="translate(0.925781 0.897461)"/>
</clipPath>
</defs>
</svg>
